<svg xmlns="http://www.w3.org/2000/svg" xmlns:xlink="http://www.w3.org/1999/xlink" viewBox="0 0 600 600"><defs><style>.cls-1{isolation:isolate;}.cls-2{fill:#fff;}.cls-3,.cls-4{fill:none;stroke-miterlimit:10;stroke-width:0.75px;}.cls-3{stroke:url(#linear-gradient);}.cls-4{stroke:url(#linear-gradient-2);}.cls-5{fill:#303030;}.cls-6,.cls-8{fill:#90908f;}.cls-7{mix-blend-mode:multiply;opacity:0.7;fill:url(#linear-gradient-3);}.cls-8{fill-rule:evenodd;}.cls-9{fill:#ec196f;}</style><linearGradient id="linear-gradient" x1="15.63" y1="335.35" x2="584.13" y2="335.35" gradientUnits="userSpaceOnUse"><stop offset="0" stop-color="#e94e92"/><stop offset="1" stop-color="#e6267a"/></linearGradient><linearGradient id="linear-gradient-2" x1="15.63" y1="404.01" x2="584.13" y2="404.01" xlink:href="#linear-gradient"/><linearGradient id="linear-gradient-3" x1="78.41" y1="251.6" x2="88.81" y2="251.6" gradientUnits="userSpaceOnUse"><stop offset="0"/><stop offset="0.15" stop-color="#030303"/><stop offset="0.27" stop-color="#0e0e0e"/><stop offset="0.4" stop-color="#202020"/><stop offset="0.51" stop-color="#3a3a3a"/><stop offset="0.63" stop-color="#5b5b5b"/><stop offset="0.74" stop-color="#838383"/><stop offset="0.85" stop-color="#b3b3b3"/><stop offset="0.96" stop-color="#e9e9e9"/><stop offset="1" stop-color="#fff"/></linearGradient></defs><g class="cls-1"><g id="Layer_1" data-name="Layer 1"><rect class="cls-2" width="600" height="600"/><line class="cls-3" x1="15.63" y1="335.35" x2="584.13" y2="335.35"/><line class="cls-4" x1="15.63" y1="404.01" x2="584.13" y2="404.01"/><path id="athena" class="cls-5" d="M196.86,304.58a28.52,28.52,0,0,0,11.75-2.41,17.44,17.44,0,0,0,8.1-6.78h.42v7.49h21.11V267.39a68.39,68.39,0,0,0-1.76-16.61,28.92,28.92,0,0,0-5.56-11.6,22.42,22.42,0,0,0-9.92-6.79,44.8,44.8,0,0,0-15-2.19,49.2,49.2,0,0,0-16.82,3,40.41,40.41,0,0,0-14.43,8.91h0l11.68,12.58a30.47,30.47,0,0,1,7.81-5.09,22.42,22.42,0,0,1,9.51-2.12,15.7,15.7,0,0,1,9,2.48q3.66,2.48,3.66,7.7h0v1.13a150.17,150.17,0,0,0-15.62.85,56.47,56.47,0,0,0-14.57,3.4,27.22,27.22,0,0,0-10.7,7.21q-4.16,4.66-4.15,12.3A21.07,21.07,0,0,0,173.77,293a19.93,19.93,0,0,0,6.13,6.79,25.51,25.51,0,0,0,8.23,3.68A36,36,0,0,0,196.86,304.58ZM202.63,289a18.17,18.17,0,0,1-3.52-.35,10.08,10.08,0,0,1-3.24-1.2,7.15,7.15,0,0,1-2.32-2.26,6.15,6.15,0,0,1-.92-3.4,6.67,6.67,0,0,1,2-5,12.78,12.78,0,0,1,5-2.9,31.75,31.75,0,0,1,6.9-1.34c2.58-.24,5.14-.35,7.67-.35h3v2.4q0,6.64-3.73,10.53T202.63,289Zm70.44,15.56a43.18,43.18,0,0,0,7.32-.64,38.53,38.53,0,0,0,6.05-1.48h0l-.28-17a12.26,12.26,0,0,1-3.17.85,24.22,24.22,0,0,1-3.59.28q-4.92,0-6.83-2.48c-1.26-1.64-1.9-4.12-1.9-7.42h0V249.86h16.47V232.47H270.67V213.94H248v18.53H236.89v17.39h11.26v29.69a38.3,38.3,0,0,0,1.27,10.25,20,20,0,0,0,4.15,7.92,18.37,18.37,0,0,0,7.67,5.09A34.33,34.33,0,0,0,273.07,304.58Zm39.89-1.7v-38a17.24,17.24,0,0,1,3.23-10.67q3.24-4.32,9.29-4.31a9.61,9.61,0,0,1,5.07,1.2,9.15,9.15,0,0,1,3.17,3.25,13.42,13.42,0,0,1,1.62,4.74,36.52,36.52,0,0,1,.42,5.65h0v38.18H359V259.33a42.09,42.09,0,0,0-1.34-10.46,25.8,25.8,0,0,0-4.37-9.26A23,23,0,0,0,345.4,233a25.68,25.68,0,0,0-12-2.54,22.76,22.76,0,0,0-12.53,3.32,22,22,0,0,0-7.6,7.56H313V196H289.87V302.88Zm90.14,2.26a42.83,42.83,0,0,0,18.79-3.89,32.41,32.41,0,0,0,13-11.1h0L418.86,280a18.41,18.41,0,0,1-6.19,5.31,19.42,19.42,0,0,1-9.29,2.05,18.58,18.58,0,0,1-11.19-3.75,15.2,15.2,0,0,1-3.8-4.17,12.32,12.32,0,0,1-1.76-5.37h50.82a25.58,25.58,0,0,0,.14-2.69h0v-2.83A46.39,46.39,0,0,0,435,252.4a34.88,34.88,0,0,0-7.25-12,30.78,30.78,0,0,0-11.12-7.56,37.63,37.63,0,0,0-14.21-2.62,40.83,40.83,0,0,0-14.93,2.69,35.83,35.83,0,0,0-12,7.56,35.44,35.44,0,0,0-8,11.88,39.66,39.66,0,0,0-3,15.63,39.18,39.18,0,0,0,3,15.83,33.3,33.3,0,0,0,8.3,11.67,36.37,36.37,0,0,0,12.32,7.21A44.61,44.61,0,0,0,403.1,305.14Zm13.23-45.53h-29.7a12.53,12.53,0,0,1,1.41-5.16,14.26,14.26,0,0,1,3.38-4.31,16,16,0,0,1,4.92-2.9,17.39,17.39,0,0,1,6.2-1.06q6.88,0,10.34,4a13.94,13.94,0,0,1,3.45,9.47Zm50.45,43.27V264.7a21.28,21.28,0,0,1,.77-5.72,15,15,0,0,1,2.33-4.88,10.86,10.86,0,0,1,3.87-3.32,11.49,11.49,0,0,1,5.42-1.21,9.89,9.89,0,0,1,5.13,1.21,8.39,8.39,0,0,1,3.17,3.25,15.6,15.6,0,0,1,1.62,4.73,31.3,31.3,0,0,1,.49,5.66h0v38.46h23.23V259.33a42.09,42.09,0,0,0-1.34-10.46,26,26,0,0,0-4.36-9.26,22.89,22.89,0,0,0-8-6.58,25.75,25.75,0,0,0-12-2.54,23.49,23.49,0,0,0-6.9,1,29.47,29.47,0,0,0-6,2.54,20,20,0,0,0-4.79,3.75,22.92,22.92,0,0,0-3.3,4.45h-.29v-9.75H443.55v70.41Zm76.21,1.7a28.52,28.52,0,0,0,11.75-2.41,17.37,17.37,0,0,0,8.09-6.78h.43v7.49h21.11V267.39a68.89,68.89,0,0,0-1.76-16.61,29,29,0,0,0-5.56-11.6,22.42,22.42,0,0,0-9.92-6.79,44.84,44.84,0,0,0-15-2.19,49.26,49.26,0,0,0-16.83,3,40.37,40.37,0,0,0-14.42,8.91h0l11.68,12.58a30.47,30.47,0,0,1,7.81-5.09,22.41,22.41,0,0,1,9.5-2.12,15.71,15.71,0,0,1,9,2.48q3.66,2.48,3.66,7.7h0v1.13a150,150,0,0,0-15.62.85,56.47,56.47,0,0,0-14.57,3.4,27.15,27.15,0,0,0-10.7,7.21q-4.15,4.66-4.15,12.3A21.07,21.07,0,0,0,519.9,293a20,20,0,0,0,6.12,6.79,25.66,25.66,0,0,0,8.24,3.68A36,36,0,0,0,543,304.58ZM548.76,289a18.17,18.17,0,0,1-3.52-.35,10.08,10.08,0,0,1-3.24-1.2,7.15,7.15,0,0,1-2.32-2.26,6.15,6.15,0,0,1-.92-3.4,6.7,6.7,0,0,1,2-5,12.82,12.82,0,0,1,5-2.9,31.75,31.75,0,0,1,6.9-1.34c2.58-.24,5.14-.35,7.67-.35h3v2.4q0,6.64-3.73,10.53T548.76,289Z" transform="translate(0)"/><path id="n-copy-2" class="cls-6" d="M85.28,302.88V264.7a20.89,20.89,0,0,1,.77-5.72,15.2,15.2,0,0,1,2.32-4.88,10.86,10.86,0,0,1,3.87-3.32,11.55,11.55,0,0,1,5.42-1.21,9.9,9.9,0,0,1,5.14,1.21A8.39,8.39,0,0,1,106,254a15.6,15.6,0,0,1,1.62,4.73,32.23,32.23,0,0,1,.49,5.66v38.46h23.23V259.33A42.09,42.09,0,0,0,130,248.87a25.8,25.8,0,0,0-4.37-9.26,22.77,22.77,0,0,0-7.95-6.58,25.75,25.75,0,0,0-12-2.54,23.49,23.49,0,0,0-6.9,1,29.47,29.47,0,0,0-6,2.54A20,20,0,0,0,88,237.77a23.41,23.41,0,0,0-3.31,4.45h-.28a9.73,9.73,0,0,0-9.73-9.75H73.24a11.2,11.2,0,0,0-11.19,11.22v59.19H85.28Z" transform="translate(0)"/><path class="cls-7" d="M88.81,237.05c-.26.24-.55.46-.79.72a23.41,23.41,0,0,0-3.31,4.45h-.28c0-2.8-2.24.66-4.12-1.12l-1.9-6,6.33,32.91.72-6.09a21.23,21.23,0,0,1,.59-3,15.2,15.2,0,0,1,2.32-4.88c.14-.19.29-.36.44-.53Z" transform="translate(0)"/><polygon id="i-copy-6" class="cls-6" points="164.03 302.88 164.03 232.18 139.66 232.18 139.66 302.88 164.03 302.88"/><path id="Path-Copy-6" class="cls-8" d="M153.2,221.31a14.58,14.58,0,0,0,5.25-1,13.28,13.28,0,0,0,4.32-2.58,12.55,12.55,0,0,0,2.88-3.87,11.34,11.34,0,0,0,0-9.66,12.55,12.55,0,0,0-2.88-3.87,13.28,13.28,0,0,0-4.32-2.58,14.58,14.58,0,0,0-5.25-1,13.72,13.72,0,0,0-5.33,1,16,16,0,0,0-4.32,2.65,11.09,11.09,0,0,0-2.88,3.88,11.48,11.48,0,0,0,2.88,13.32A13.63,13.63,0,0,0,153.2,221.31Z" transform="translate(0)"/><g id="upload-copy-3"><path id="Path" class="cls-9" d="M403.33,197.23a1.68,1.68,0,0,0-2.17,0L367.5,227.14a1.29,1.29,0,0,0-.45,1V239a1.45,1.45,0,0,0,1.53,1.36,1.63,1.63,0,0,0,1.09-.4L402.24,211l32.58,28.95a1.67,1.67,0,0,0,2.16,0,1.24,1.24,0,0,0,.45-1V228.1a1.27,1.27,0,0,0-.44-1Z" transform="translate(0)"/></g><path id="u-copy-2" class="cls-6" d="M41.11,304.58a24.21,24.21,0,0,0,7-1A29.17,29.17,0,0,0,54.13,301a21,21,0,0,0,4.78-3.67,19.73,19.73,0,0,0,3.31-4.53h.28v9.76H84.74V243.76a11.54,11.54,0,1,0-23.08,0v26.46h0a18,18,0,0,1-3.17,10.6,10.54,10.54,0,0,1-9.22,4.53,9.85,9.85,0,0,1-5.21-1.21,8.86,8.86,0,0,1-3.16-3.32A14,14,0,0,1,39.28,276a36.52,36.52,0,0,1-.42-5.65V255.48a23.26,23.26,0,0,0-23.23-23.3h0v43.55A42,42,0,0,0,17,286.27a25.94,25.94,0,0,0,4.36,9.19A23.24,23.24,0,0,0,29.21,302,25.38,25.38,0,0,0,41.11,304.58Z" transform="translate(0)"/><path class="cls-5" d="M22.88,381.35l2.33-5.73h11l2.36,5.73h3.68L32.3,358H29.35L19.27,381.35Zm12.18-8.6h-8.7l4.36-10.94Zm19,8.6V360.88H61.5V358H43.35v2.86H50.8v20.47Zm16.41,0V370.67H82.21v10.68h3.28V358H82.21v9.75H70.46V358H67.21v23.33Zm38.68,0v-2.9H97v-7.78h11v-2.8H97v-7h11.65V358H93.75v23.33Zm10.2,0V362.3h.07l12.28,19.05h4.1V358h-3.25v18.65h-.07L120.33,358h-4.24v23.33Zm25.66,0,2.33-5.73h11l2.36,5.73h3.68l-10-23.33h-2.95l-10.08,23.33Zm12.18-8.6h-8.7l4.37-10.94Zm35.92,9.19a20,20,0,0,0,4.73-.52,17.08,17.08,0,0,0,4-1.52V368.6h-8.37v2.76h5.16v6.5a8.68,8.68,0,0,1-2.4.85,14.18,14.18,0,0,1-3,.3,9.38,9.38,0,0,1-3.74-.72,8,8,0,0,1-2.82-2,8.74,8.74,0,0,1-1.77-3,10.5,10.5,0,0,1-.63-3.66,10.3,10.3,0,0,1,.63-3.61,9,9,0,0,1,1.77-3,8.17,8.17,0,0,1,2.79-2,8.88,8.88,0,0,1,3.67-.74,9.18,9.18,0,0,1,3.63.69,7.68,7.68,0,0,1,2.68,1.85l2.26-2.37a10.39,10.39,0,0,0-3.63-2.21,14,14,0,0,0-5-.83,13.4,13.4,0,0,0-4.92.89,11.93,11.93,0,0,0-3.92,2.49,11.33,11.33,0,0,0-2.6,3.86,13.84,13.84,0,0,0,0,9.95,11.41,11.41,0,0,0,2.56,3.89A11.54,11.54,0,0,0,188.1,381,13.51,13.51,0,0,0,193.1,381.94Zm33-.59v-2.9H215.74V358h-3.25v23.33Zm18.34.59a13.22,13.22,0,0,0,4.93-.9,11.51,11.51,0,0,0,6.48-6.43,13.77,13.77,0,0,0,0-9.95,11.28,11.28,0,0,0-2.58-3.86,11.74,11.74,0,0,0-3.9-2.49,13.42,13.42,0,0,0-4.93-.89,13.26,13.26,0,0,0-4.9.89,11.8,11.8,0,0,0-3.89,2.49,11.1,11.1,0,0,0-2.56,3.86,13.91,13.91,0,0,0,0,9.95,11.41,11.41,0,0,0,2.56,3.89,11.61,11.61,0,0,0,3.89,2.54A13.06,13.06,0,0,0,244.45,381.94Zm0-2.93a8.78,8.78,0,0,1-3.61-.72,8.23,8.23,0,0,1-2.75-2,8.92,8.92,0,0,1-1.78-3,10.74,10.74,0,0,1-.62-3.66,10.53,10.53,0,0,1,.62-3.61,9.55,9.55,0,0,1,1.76-3,8.15,8.15,0,0,1,2.76-2,8.68,8.68,0,0,1,3.62-.74,8.76,8.76,0,0,1,3.66.74,8.33,8.33,0,0,1,2.78,2,9.39,9.39,0,0,1,1.77,3,10.3,10.3,0,0,1,.62,3.61,10.5,10.5,0,0,1-.62,3.66,9.07,9.07,0,0,1-1.77,3,8.29,8.29,0,0,1-2.79,2A9,9,0,0,1,244.45,379Zm29.5,2.34a13.71,13.71,0,0,0,3.4-.41,8.76,8.76,0,0,0,2.77-1.22,5.79,5.79,0,0,0,2.56-5,6.17,6.17,0,0,0-.37-2.21,5.32,5.32,0,0,0-1.07-1.72,5.56,5.56,0,0,0-1.64-1.17,7,7,0,0,0-2.07-.57V369a5.64,5.64,0,0,0,3-1.81,4.85,4.85,0,0,0,1.12-3.26,5.52,5.52,0,0,0-.64-2.8,5.32,5.32,0,0,0-1.67-1.82,7.06,7.06,0,0,0-2.35-1,12.39,12.39,0,0,0-2.63-.29h-8v23.33Zm-.16-13.48h-4.24v-7.12h3.71a7.29,7.29,0,0,1,3.71.81,2.86,2.86,0,0,1,1.38,2.69,3.44,3.44,0,0,1-.36,1.63,3.3,3.3,0,0,1-1,1.12,4.71,4.71,0,0,1-1.47.66A7.11,7.11,0,0,1,273.79,367.87Zm-.17,10.71h-4.07v-7.94h4.37a7.5,7.5,0,0,1,4.07.92,3.33,3.33,0,0,1,1.41,3,3.48,3.48,0,0,1-.51,2,3.8,3.8,0,0,1-1.34,1.24,5.91,5.91,0,0,1-1.87.64A12,12,0,0,1,273.62,378.58Zm19.79,2.77,2.33-5.73h11l2.36,5.73h3.68l-10-23.33h-3L289.8,381.35Zm12.17-8.6h-8.69l4.36-10.94Zm28.91,8.6v-2.9H324.12V358h-3.25v23.33Zm36.12,0v-2.9H358.47v-7.78h11v-2.8h-11v-7h11.65V358h-14.9v23.33Zm17.39,0a14.8,14.8,0,0,0,4.47-.71,12.6,12.6,0,0,0,4-2.14,10.67,10.67,0,0,0,2.92-3.63,11.22,11.22,0,0,0,1.12-5.19,11.55,11.55,0,0,0-1.12-5.3,10.58,10.58,0,0,0-2.92-3.63,12.05,12.05,0,0,0-4-2.07A15.71,15.71,0,0,0,388,358h-8v23.33Zm-.66-2.87h-4.06V360.85h4.06a12.4,12.4,0,0,1,3.89.58,8.7,8.7,0,0,1,3.09,1.68,7.57,7.57,0,0,1,2,2.75,9.47,9.47,0,0,1,.72,3.82,9.23,9.23,0,0,1-.72,3.73,7.73,7.73,0,0,1-2,2.77,9.08,9.08,0,0,1-3.09,1.71A12.11,12.11,0,0,1,387.34,378.48Zm31.6,3.46a9.72,9.72,0,0,0,4-.77,8.05,8.05,0,0,0,2.82-2.06,8.34,8.34,0,0,0,1.66-2.95,11.1,11.1,0,0,0,.54-3.44V358h-3.25v14.5a9.88,9.88,0,0,1-.29,2.35,6.12,6.12,0,0,1-1,2.1,4.93,4.93,0,0,1-1.79,1.48,7,7,0,0,1-5.47,0,4.94,4.94,0,0,1-1.77-1.48,6.12,6.12,0,0,1-1-2.1,9.88,9.88,0,0,1-.29-2.35V358h-3.25v14.7a11.1,11.1,0,0,0,.54,3.44,8.34,8.34,0,0,0,1.66,2.95,8.05,8.05,0,0,0,2.82,2.06A9.71,9.71,0,0,0,418.94,381.94Zm30.65,0a11.14,11.14,0,0,0,5.29-1.17,10.4,10.4,0,0,0,3.57-3L455.86,376a6.93,6.93,0,0,1-2.66,2.3,7.94,7.94,0,0,1-3.58.79,8.83,8.83,0,0,1-3.62-.72,8.07,8.07,0,0,1-2.76-2,9,9,0,0,1-1.74-3,11.07,11.07,0,0,1-.61-3.69,10.3,10.3,0,0,1,.63-3.61,9,9,0,0,1,1.77-3,8.39,8.39,0,0,1,2.77-2,8.83,8.83,0,0,1,3.66-.74,7.42,7.42,0,0,1,3.37.78,6.34,6.34,0,0,1,2.41,2l2.56-2a7.35,7.35,0,0,0-1.58-1.57,9.3,9.3,0,0,0-2-1.13,12.08,12.08,0,0,0-2.33-.7,13.17,13.17,0,0,0-2.4-.23,13.4,13.4,0,0,0-4.92.89,11.93,11.93,0,0,0-3.92,2.49,11.33,11.33,0,0,0-2.6,3.86,13.84,13.84,0,0,0,0,9.95,11.33,11.33,0,0,0,6.42,6.43A13,13,0,0,0,449.59,381.94Zm17.82-.59,2.33-5.73h11l2.37,5.73h3.67l-10-23.33h-3L463.8,381.35Zm12.17-8.6h-8.69l4.36-10.94Zm21.46,8.6V360.88h7.45V358H490.34v2.86h7.45v20.47Zm18.86,0V358h-3.25v23.33Zm21.82.59a13.22,13.22,0,0,0,4.93-.9,11.55,11.55,0,0,0,3.9-2.54,11.76,11.76,0,0,0,2.58-3.89,13.77,13.77,0,0,0,0-9.95,11.43,11.43,0,0,0-2.58-3.86,11.74,11.74,0,0,0-3.9-2.49,14,14,0,0,0-9.84,0,11.86,11.86,0,0,0-3.88,2.49,11.1,11.1,0,0,0-2.56,3.86,13.91,13.91,0,0,0,0,9.95,11.41,11.41,0,0,0,2.56,3.89,11.66,11.66,0,0,0,3.88,2.54A13.15,13.15,0,0,0,541.72,381.94Zm0-2.93a8.75,8.75,0,0,1-3.61-.72,8.23,8.23,0,0,1-2.75-2,8.92,8.92,0,0,1-1.78-3,10.74,10.74,0,0,1-.62-3.66,10.53,10.53,0,0,1,.62-3.61,9.55,9.55,0,0,1,1.76-3,8.15,8.15,0,0,1,2.76-2,8.68,8.68,0,0,1,3.62-.74,8.76,8.76,0,0,1,3.66.74,8.33,8.33,0,0,1,2.78,2,9.39,9.39,0,0,1,1.77,3,10.3,10.3,0,0,1,.62,3.61,10.5,10.5,0,0,1-.62,3.66,9.07,9.07,0,0,1-1.77,3,8.29,8.29,0,0,1-2.79,2A9,9,0,0,1,541.72,379Zm25.1,2.34V362.3h.07l12.27,19.05h4.11V358H580v18.65H580L567.81,358h-4.24v23.33Z" transform="translate(0)"/></g></g></svg>